/* XPM */
static char *_7a7eee066db429897e13979e4a0e325hBlBm1VHV6Z7FBCs[] = {
/* columns rows colors chars-per-pixel */
"64 63 238 2 ",
"   c #030302",
".  c #0A0403",
"X  c #070803",
"o  c #0B0B06",
"O  c #03050A",
"+  c #09060A",
"@  c #05090B",
"#  c #0D0C0B",
"$  c #130200",
"%  c #1A0301",
"&  c #140C05",
"*  c #1D0C02",
"=  c #110E0C",
"-  c #17070A",
";  c #0F100B",
":  c #12120D",
">  c #1C140D",
",  c #171308",
"<  c #0D0E12",
"1  c #050D17",
"2  c #110F11",
"3  c #190D12",
"4  c #0E1114",
"5  c #0B121A",
"6  c #141312",
"7  c #1B1614",
"8  c #161A12",
"9  c #1B1915",
"0  c #141619",
"q  c #151A1B",
"w  c #1D1C1A",
"e  c #1B151B",
"r  c #220B02",
"t  c #280902",
"y  c #271408",
"u  c #381808",
"i  c #211613",
"p  c #211813",
"a  c #201815",
"s  c #231A15",
"d  c #211916",
"f  c #221916",
"g  c #221B16",
"h  c #231B18",
"j  c #221C1A",
"k  c #291B19",
"l  c #321C17",
"z  c #1D221C",
"x  c #192316",
"c  c #23221D",
"v  c #28241B",
"b  c #262318",
"n  c #37241B",
"m  c #1B1B22",
"M  c #0F1821",
"N  c #241E21",
"B  c #1D2229",
"V  c #192636",
"C  c #252322",
"Z  c #292524",
"A  c #2B2A25",
"S  c #2D2B2A",
"D  c #252927",
"F  c #312E2A",
"G  c #382923",
"H  c #34342D",
"J  c #3B302C",
"K  c #252B36",
"L  c #312F32",
"P  c #383734",
"I  c #2F3028",
"U  c #431904",
"Y  c #462918",
"T  c #552E19",
"R  c #58321F",
"E  c #47352B",
"W  c #5A3824",
"Q  c #463A34",
"!  c #513B34",
"~  c #653B29",
"^  c #602E17",
"/  c #44423B",
"(  c #4B473D",
")  c #58423C",
"_  c #68422E",
"`  c #784628",
"'  c #694836",
"]  c #764835",
"[  c #76553E",
"{  c #303843",
"}  c #3D4655",
"|  c #484846",
" . c #564942",
".. c #58544A",
"X. c #5B5953",
"o. c #4D545A",
"O. c #694C41",
"+. c #695346",
"@. c #735444",
"#. c #7C5B4C",
"$. c #785647",
"%. c #685A55",
"&. c #65635B",
"*. c #7C6459",
"=. c #7B634B",
"-. c #6B6C64",
";. c #716D63",
":. c #767369",
">. c #7A7974",
",. c #6D7076",
"<. c #874933",
"1. c #885537",
"2. c #905C3B",
"3. c #804A26",
"4. c #97633E",
"5. c #865A46",
"6. c #805F54",
"7. c #945543",
"8. c #88644D",
"9. c #9A684A",
"0. c #886553",
"q. c #976B57",
"w. c #9A755D",
"e. c #A96B57",
"r. c #AA7558",
"t. c #B87C5B",
"y. c #A66D48",
"u. c #8D7565",
"i. c #997865",
"p. c #987D74",
"a. c #936C63",
"s. c #AB7B64",
"d. c #A87B64",
"f. c #B87A64",
"g. c #C67E6E",
"h. c #9F806C",
"j. c #AA8169",
"k. c #BB8365",
"l. c #B7866B",
"z. c #AA8774",
"x. c #B38A74",
"c. c #B88875",
"v. c #B8927B",
"b. c #C38C6C",
"n. c #C48668",
"m. c #C48C73",
"M. c #CC8D74",
"N. c #C58C79",
"B. c #D48E7A",
"V. c #C99375",
"C. c #C2947B",
"Z. c #CD957B",
"A. c #C5997C",
"S. c #CA9B7A",
"D. c #C69474",
"F. c #D2937B",
"G. c #D49B7D",
"H. c #D99878",
"J. c #E2987C",
"K. c #9B9A9A",
"L. c #8C8685",
"P. c #B89786",
"I. c #A79E9A",
"U. c #B99E92",
"Y. c #AB9185",
"T. c #BAA59A",
"R. c #AFA096",
"E. c #ACB2BA",
"W. c #B5B5B9",
"Q. c #A8ADB3",
"!. c #C49B83",
"~. c #CB9B82",
"^. c #C79886",
"/. c #D49C84",
"(. c #DA9B83",
"). c #D99A86",
"_. c #C89D94",
"`. c #E39C84",
"'. c #C9A289",
"]. c #D4A284",
"[. c #DBA286",
"{. c #D4A48B",
"}. c #DCA48B",
"|. c #D9AC8B",
" X c #DDB18A",
".X c #C8AA96",
"XX c #D7A995",
"oX c #DAB49D",
"OX c #E3A58C",
"+X c #EAA68E",
"@X c #E3AA8C",
"#X c #E7A888",
"$X c #EEB08E",
"%X c #E4AC92",
"&X c #EBAC93",
"*X c #EAAB96",
"=X c #F2AD95",
"-X c #EBB295",
";X c #EEB49B",
":X c #E6B598",
">X c #F2B69B",
",X c #F5B69A",
"<X c #F3AE8B",
"1X c #D3B7A6",
"2X c #C7B3A6",
"3X c #EAB9A3",
"4X c #F5BCA5",
"5X c #FBBCA3",
"6X c #F4B8A3",
"7X c #DCC4B7",
"8X c #D1C1B7",
"9X c #FCC3A8",
"0X c #E3CABA",
"qX c #FBCBB5",
"wX c #BDBEC3",
"eX c #D8D7D8",
"rX c #CFC7C5",
"tX c #E3CEC2",
"yX c #E7D4C9",
"uX c #F4DDCD",
"iX c #E6DCD8",
"pX c #F5DFD1",
"aX c #F6E6DB",
"sX c #E7E2DF",
"dX c #DEDDE2",
"fX c #DFE2E8",
"gX c #E6E2E2",
"hX c #E9E7E8",
"jX c #F3EDEB",
"kX c #F9ECE6",
"lX c #FFF3EC",
"zX c #E9EDF4",
"xX c #EDF2F8",
"cX c #F3F1F3",
"vX c #FFFBF2",
"bX c #F3F5FC",
"nX c #FCFDFD",
"mX c #F9F6F7",
/* pixels */
"P # o = # 6 = o # # # = = : : : : : : : : : : : 6 6 6 6 6 : : 6 6 6 6 6 6 6 6 6 7 7 7 7 7 9 9 a 7 7 i i 7 7 7 7 7 7 6 6 6 6 7 7 ",
"/ : o # # 6 = # # # # = = : : : : : : : : : 6 8 6 6 : : : : : : 6 6 6 6 6 6 6 6 7 7 7 7 9 9 9 9 i i i i 7 7 7 7 7 7 7 6 7 7 7 7 ",
"| 6 o # # : = = = = = = = : : : : : : : : : 6 6 ; ; ; ; ; ; ; # 6 6 6 6 6 6 7 7 7 7 7 7 9 9 a a i i i i d 7 7 7 7 7 7 7 7 7 7 7 ",
"X.9 o # # : = : = = = = = : : : : : : : : : ; #   X X X X o o o 6 6 6 6 6 6 7 7 7 7 7 7 9 a a a d d s s d d 7 9 7 7 7 7 7 7 7 7 ",
"X.w o # # : # : # # # = = : : : : : 6 6 : # X             X o o 2 6 6 6 6 6 7 7 7 7 7 9 9 9 a a d d d s d d a d 7 7 7 7 7 7 7 7 ",
"&.w o # # : # : # # # = = : : : : : 6 6 : o             X o o # # = 2 6 6 6 6 6 7 7 7 9 9 a a d d d s s d d d d 7 7 7 7 7 7 7 7 ",
"&.w o = # : # : # # # = = : : : 6 6 : # o               X o o o # # # = 2 6 6 6 7 7 9 9 9 a d d s s d d d d d a 7 7 7 7 7 7 7 7 ",
"&.w o = # : # : # # # = = : : : 6 : # o X                     X # # # # = 2 6 6 7 7 9 9 9 a d d d d d d d d d a 7 7 7 7 7 7 7 7 ",
"| c # # # : : o : = # # = : : # X                           X # 2 6 2 # # 2 # o 9 7 7 9 d d 7 7 i p p d d d d 9 9 9 7 7 7 7 7 7 ",
"H 6 X o # : : # : = # # : : = #                         X X X o + o + + o 2 : = = 6 7 9 d 9 9 9 i p p d d d d 9 9 9 7 7 7 7 7 7 ",
"C = X # # : : # = # # = : : = #                     X o # # o X   X     o 6 7 6 o = 9 d a 7 7 d p p d d d d d d 9 9 7 7 7 7 7 7 ",
"Z : # : = # : = # # # = : = # # X                     X # # o X o + X   + 6 7 7 = 7 7 9 7 7 7 7 p p d s d d d d 9 9 7 7 7 7 7 7 ",
"A 6 = : # # : : # # # = # # # # X X             X       + o o X   X o o # 6 7 6 9 7 = = 7 j d a p d d d d d d d 9 9 9 9 9 9 7 7 ",
"A 6 o # o o : : # # # # o o = : o o X X         X       X X o o       X # 6 7 : 9 = o & 9 k k j d d d d d d d d 9 9 9 9 9 9 7 7 ",
"A : o # # # : = = = # o o o = : # # o X X       X X X   X X o # # # +   + = : = 6 = o = 7 j j j d d d s h d d d 9 9 7 9 9 7 7 7 ",
"F 6 # : = = = o : : # o X o = : = # # o O O     X o o o   X @ < e 7 = o o # = = & & & = 7 9 9 9 d d d h h d d d 9 9 9 9 9 9 9 7 ",
"S 9 o o : : # : : 6 # X o 6 8 :   7 w + < <   2 > n y * 7 o @ < w N = 8 ;   8 9 , & & . 7 > c w 9 d j j h j j j a 9 9 9 9 9 9 9 ",
"I 9 o o : : # : o : : # 6 9 8 # . 7 j < 5 <   3  .Y Y r n v S X h Q N Z P ; X c > , > & 9 : z w 9 d j j h j j d a 9 9 9 9 9 9 9 ",
"I 9 o o : : # : o ; 6 6 8 w 9 # o : w q m 6 . l p.W Y u ' ! Q k l  .J c S A z 9 7 7 g : 9 : 9 9 9 d j j j j d d a a 9 9 9 9 9 9 ",
"H w o o : ; # : ; : # o 6 w z 9 : : 8 w B 9 7 ! Y.@.U _ ' #.*.) l G ) J   # P L 9 7 c : 7 o 9 w 9 j j j j d a a 9 a 9 9 9 9 9 9 ",
"H z o o : ; # : : : # o 6 c C w x 8 8 8 c 9 v +.v.q.^ 5.] q._.a.@.t r n &   c P 6 6 w = : X 8 w 9 j j j d 9 9 9 9 9 9 9 9 9 9 9 ",
"H z ; o : ; ; : # ; # # 9 C C 8 D x x 8 w > l @.x.C.~ ` l.q.c.XXXX5.t $ > ,   P # # 6 o #   8 w 9 j j j d 9 9 9 9 9 9 9 9 9 9 9 ",
"H c ; o : ; ; : # # # # w Z C 8 D z z 8 > * y ' z.~.1.<.).c.q.XXXX3Xz.Y y &   L # + =   o   : 9 w j j d 9 9 9 7 9 9 9 9 9 9 9 9 ",
"H c o o : ; ; : : : # o 8 C C 9 z z z 7 i r t ~ z.x.c.s.q.qX^.9.:X3X3Xz.+.E > = = + #   .   : 9 w j j d 9 9 9 7 9 9 9 9 9 9 9 9 ",
"/ H ; X : : : o : : # X # w c w @ q + - * r r _ i.x.q.x.d.i.'.!.[.%X9XoXU.%.& & . 7 Q .     b 9 j 9 9 9 9 9 7 7 7 7 7 7 7 7 7 7 ",
"X.| w o : : : ; : : # X # 9 w w O < . $ n Y u T $.0.' [ ' Y ' w.Z.G.].{.z.' O.p.E G %.s . . , c w 9 9 9 9 9 9 7 7 7 7 7 7 7 7 7 ",
"-.&.Z o : : : : : : # o o 6 w 0 O + . y 6.0.$.] x.oX1X1X.Xu.=.v.b.;X@X~.j.w.i.@.u y ) ! y . , c 9 9 9 9 9 9 9 9 9 9 9 9 9 9 9 9 ",
":.-.A X : : : : : : # o o : 6 6 + + $ ! P.^.v.j.XX1X'.z.i.z.i.'.Z.9X9XV.s.A.j.U W ' O.p.) . g o 9 9 9 9 9 9 9 9 9 9 9 9 9 9 9 9 ",
"-.:.H X : : ; : ; : # o o # ; 6 # . $ $.!.{.S.~.c.0.~ T t $.q.~.%X#X>XV.r.m.V.r.s.l.q.P.O.. g : 9 9 9 9 9 9 9 9 9 9 9 9 9 9 9 9 ",
"-.>.H X : : o ; ; ; # o X X o # @ o $ 0.A.G.G.@XZ.e.q.z.] d.l.XX-XF.;XG.r.k.F.$XG.m.N.x.@.* & c 9 9 9 9 9 9 9 9 9 9 9 9 9 9 9 9 ",
"-.>.P   : : o : ; # # o     X #   X * 0.S.H.#X$X-X/.XX3X~.).OX;XOX}.;X#Xk.t.b.H.<X#X*X!.u.y   : 9 9 9 9 9 9 9 9 9 9 9 9 9 9 9 9 ",
"-.>.H   : : ; 6 ; # # o       o   . r [ S.b.$XH.#X&X;X}.4X6X5X=XOX&XOX@Xn.y.H.<XJ.=X(.c.p.r , ; 9 9 9 9 9 9 9 9 9 9 9 9 9 9 9 9 ",
"&.;.P : : # # 6 : # o o     # j . % t _ l.Z.V.&X&X;X>X;X>X4X4X>X=XJ.`.;XG.2.b.,X,X+XOX^.a.y = 6 8 7 7 9 9 6 7 6 7 7 9 9 7 6 6 6 ",
"..&.H & : = = 6 6 # o o     o p u.Y % R d.l././.;X>X>X>X6X4X4X6X`.B.(.-X}.9.m.,X5X=X*X^.0.r & 8 8 9 7 9 9 6 7 6 9 7 9 9 9 9 6 6 ",
"( X.H o = = : 6 6 # X o       & Y.u.u u 9.r.}./.;X,X5X5X5X4X;X*XH.H.OX;X3Xr.s.G.,X=X*XN.6.% o q 8 9 9 9 7 6 7 6 6 6 7 9 9 9 9 7 ",
" .&.P : = = : : 6 # X o X     X ) 7XP.u [ q.m./.@X>X9X9X9X;XOX(.F.(./.~.{.q.9.k.&X+X}.c.$.% o w 8 9 9 9 7 7 7 6 6 7 7 9 9 9 9 7 ",
"..:./ , = = : : 6 # o o X       * 1X0XY ' w.d.Z./.&X9X9X5X%X}.).M.m.l.q.d.8.9.m.(.(./.c.#.* o 8 6 6 6 9 9 9 7 6 6 6 9 9 9 9 7 7 ",
"..:.( : o = 6 : 2 # o o X       & ! *.u W i.j.V./.OX>X,X&X+X*X>X/./.{.x.C.l.l.Z.M.F.].v.0.y = : 6 6 6 9 9 9 9 6 6 6 9 9 9 9 7 7 ",
" .:.| , o = 6 = = = # o X       . . $ $ Y q.x.~.}.}.#X&X+X+X=X5X*X%XqX:X:X{.m.k.k.M.[.C.0.y & : 6 6 7 9 9 7 7 6 6 7 7 9 7 6 6 6 ",
"( :. .> # = 6 # # 2 # o           > . . Y 8.j.~.}.[.[.#X&X+X&X=X6X%X4X{.{./.l.e.r.b.{.v.6.r & 7 7 7 7 9 9 7 7 6 6 7 9 9 6 6 6 6 ",
"( ;...: o = # 6 # # # # # # X     X . . * @.0.!.}.%X+XOX(.F.n.M./.N.m.m.s.7.<.<.n.(./.v.' $ i = 7 7 9 9 9 9 9 7 6 7 9 9 6 6 6 7 ",
"/ &.| : o = # : # # # # # o       X   . $ n 8.C.{.[.+X,X&XM.t.n.e.e.e.s.e.e.e.e.n././.w.Y % - 3 7 6 9 9 9 9 6 6 6 7 9 6 6 6 6 6 ",
"Q ../ : # 6 = = = # # # # # X     o   & . $ ' 8.{.].(.+X=XOXM.F.(.}.(.B.M.g.g.f.f.Z.c.~ t % - 3 7 6 6 7 9 9 7 6 6 6 7 7 6 6 6 6 ",
"I Q F : # : : # # # # # ; o X   @ #   & . u ~ W j.~.[.G.[.&X&X&X-X;X*X).B.).F.M.m.N.5.u $ - 3 e 6 6 6 7 7 7 6 6 6 6 6 7 7 6 6 : ",
"b v b , = 6 6 # # # # # # o       @   . $ u.@._ ` s.[.[.G.G.OX-X[.OX}.F.B.(.(.Z./.l.Y % $ o m 0 8 6 6 6 7 9 7 7 6 6 : 6 7 7 : : ",
"b v b g 9 j w 7 6 6 6 6 : : o o   @ #   n T.0.0.] 2.r.b.G.G.(.-X:X;X-X[.(.).(.V.~.0.% $ &   m < 8 6 6 6 6 6 6 7 6 : : 6 7 7 : # ",
"v b Z Z c j c w w w 9 9 9 8 : ; O @ 6   %.1X=.j.d.9.1.9.k.b.G.-X X X@X}.}.}./.V.d.W . X o @ M 5 6 6 6 6 6 6 7 6 7 6 : 6 9 7 : # ",
"g 7 b Z w 7 w 6 8 8 6 8 8 : = # < O 2 o I.7X=.x.x.l.9.2.2.9.k.].|.|.|.}.}.{.^.v.#.y .   o 4 5 q 6 6 7 6 7 6 7 6 7 6 : 7 9 7 = o ",
"v A A c j j 9 9 j 7 = = 6 6 6 < 1 O 4 Z T.pXz.j.A.l.b.b.y.3.1.r.D.S.{.].'.1XU.+.E >.o   X 6 0 0 9 6 : : 7 7 7 7 7 : : 7 9 9 = o ",
"A F A Z j j j w w w j j j w 7 6 5 1 @ j 8XaX.Xx.A.S.D.b.k.k.4.` ` 2.9.w.h.#.!  .I.K.<       o C j 9 9 9 j j j 9 7 : = : 7 7 & . ",
"A F S C w j w w 7 w N N w 8 6 < 5 5 @ : rXaXuX.X!.{.].S.S.G.b.9.1.` T T W E *.8XeXI.<   @     6 Z Z Z S S S A Z Z Z C C C j = . ",
"c A A c w w j w w w 6 < # o # < < 4 #   I.aXkXpX.X'.'.'.S.D.S.].V.l.v.v.z.T.iXkXeXL.#   X # X   : 6 7 9 w j j j C C Z S S c 6 o ",
"c A S c 9 w j w w 6 o X o # 2 2 < < #   -.jXkXlXaX7X.X.XXX].S.].XX!.P.P.T.yXlXeXgX,.@     X   X   o o # : 7 w j : 6 7 w w 7 # . ",
"w A S c 7 9 w 7 # o   X # 6 6 < 6 o # X / cXjXjXvXaX7X.X.X{.{.'.v.P.v..XaXvXaXeXgX|   < @     # o # = = 7 w c Z Z C j w 7 6 # o ",
"9 A S w 6 6 : o       o # 6 6 # 6 # o # m eXmXhXmXlXaX1XU.!.'.'.'..X.XtXvXlXiXsXrXS   q 6 @   @   o o # # # 6 8 S S F S S w 2 + ",
"6 Z A 9 o o X   o o # # # # 6 6 # 8 # #   Q.nXzXbXnXnXkXtX1X.XU.U.U.tXvXlXkXjXgXrXS o < @ 6 4   o # 2 2 # # # # X 6 C L L C 2   ",
"C w 6 o     X o # # @ @ O # < < 6 o o 4 @ ,.bXxXbXcXcXnXyX2X0X0X2XtXvXkXlXlXiXjXW.@ 6 4 8 # < # # # # = 2 < # # # o # 6 w q 2   ",
"# o X       X o # # # o # < < < : # # 4 O o.zXbXfXnXmXgX> G  .%. .G L.jXnXcXrXcXK.  6 4 6 # 6 < # # = 2 2 2 < # # o o # 6 6 # X ",
"      X @ o # # # # # < < < < < # : ; < O K eXnXxXnXnX| w & j a j Z j K.mXgXbXzX,.  0 < 4 4 0 6 < < 2 6 6 6 < < < # o o # # # # ",
"    X o # # < < # # < 4 4 < < < # 6 4 4 < @ W.nXxXnXW.  D P 6 S L L m   W.bXdXzX|   q < < 4 0 6 2 2 2 6 6 6 6 6 6 6 < # # # # < ",
"X @ @ o o # # # < < < 4 0 0 6 4 < 6 4 4 0   K.nXbXdXeXS O O K } K 0 O 1 wXcXeXdXD O q < < 4 0 4 6 6 6 6 6 6 6 6 6 6 6 6 < # # < ",
"o o o # # # < 4 < < 4 4 6 6 6 4 5 4 < 6 w   >.nXhXhXbXdXK 5 V } B B O Q.xXhXnXwX0 # q 6 < 6 < 4 6 6 4 6 < 6 6 6 < 2 6 6 < # # # ",
"# # # ; 4 4 4 4 < < < 4 4 4 4 4 5 5 < 4 6   %.nXgXeXnXbXE.1 V V K 5 { zXzXnXbXE.< < 0 4 4 0 @ 4 6 2 < < < < 6 0 < < 2 2 6 < < # "
};
